# Blender 3.6.0
# www.blender.org
mtllib wb2.mtl
o Cube
v -0.008301 -0.367775 -0.024878
v 0.004825 0.978830 -0.127372
v -0.008301 -0.367775 0.024878
v 0.004825 0.978830 -0.173206
v 0.008301 -0.367775 -0.024878
v 0.008301 -0.367775 0.024878
v -0.008301 0.605125 -0.024878
v 0.004825 0.909355 -0.000000
v -0.008301 0.605125 0.024878
v 0.008301 0.605125 0.024878
v 0.008301 0.605125 -0.024878
v 0.004825 0.978830 0.173689
v 0.004825 0.978830 0.127854
v -0.010057 0.747437 -0.101171
v -0.010057 0.747437 0.101171
v 0.004825 0.847599 0.070923
v 0.004825 0.978830 0.015921
v 0.010057 0.747437 0.101171
v 0.010057 0.747437 -0.101171
v 0.004825 0.978830 -0.015922
v 0.010313 0.605125 -0.026890
v 0.004825 0.847599 -0.070923
v -0.010313 0.605125 -0.026890
v -0.004825 0.978830 -0.127372
v 0.010313 0.605125 0.026890
v -0.004825 0.978830 -0.173206
v -0.010313 0.605125 0.026890
v -0.011147 0.633165 -0.005305
v -0.004825 0.909355 -0.000000
v -0.010337 0.613516 -0.026864
v -0.010356 0.617352 -0.027133
v -0.010350 0.621435 -0.027996
v -0.010347 0.625666 -0.029403
v -0.004825 0.978830 0.173689
v -0.010346 0.629863 -0.031301
v -0.004825 0.978830 0.127854
v -0.004825 0.847599 0.070923
v -0.010347 0.633848 -0.033610
v -0.004825 0.978830 0.015921
v -0.010350 0.637454 -0.036233
v -0.004825 0.978830 -0.015922
v -0.010356 0.640531 -0.039051
v -0.004825 0.847599 -0.070923
v -0.010337 0.642982 -0.042014
v -0.011147 0.633165 0.005305
v -0.010337 0.642982 0.042014
v -0.010356 0.640531 0.039051
v -0.010350 0.637454 0.036233
v -0.010347 0.633848 0.033610
v -0.010346 0.629863 0.031301
v -0.010347 0.625666 0.029403
v -0.010350 0.621435 0.027996
v -0.010356 0.617352 0.027133
v -0.010337 0.613516 0.026864
v 0.011147 0.633165 -0.005305
v 0.010337 0.642982 -0.042014
v 0.010356 0.640531 -0.039051
v 0.010350 0.637454 -0.036233
v 0.010347 0.633848 -0.033610
v 0.010346 0.629863 -0.031301
v 0.010347 0.625666 -0.029403
v 0.010350 0.621435 -0.027996
v 0.010356 0.617352 -0.027133
v 0.010337 0.613516 -0.026864
v 0.011147 0.633165 0.005305
v 0.010337 0.613516 0.026864
v 0.010356 0.617352 0.027133
v 0.010350 0.621435 0.027996
v 0.010347 0.625666 0.029403
v 0.010346 0.629863 0.031301
v 0.010347 0.633848 0.033610
v 0.010350 0.637454 0.036233
v 0.010356 0.640531 0.039051
v 0.010337 0.642982 0.042014
v -0.009944 0.762300 -0.100984
v -0.009944 0.762300 0.100984
v 0.009944 0.762300 0.100984
v 0.009944 0.762300 -0.100984
v -0.004825 0.762300 0.061819
v -0.004825 0.762300 0.064044
v -0.004631 0.762300 0.079134
v -0.004825 0.762300 0.079134
v -0.004825 0.762300 0.078213
v -0.004825 0.762300 0.076885
v 0.004542 0.762300 0.061819
v 0.004825 0.762300 0.061819
v 0.004825 0.762300 0.064044
v 0.004825 0.762300 0.079134
v 0.004825 0.762300 0.078213
v 0.004825 0.762300 0.076885
v -0.004825 0.762300 -0.079598
v -0.004825 0.762300 -0.077344
v -0.004825 0.762300 -0.064502
v -0.004825 0.762300 -0.062287
v 0.004825 0.762300 -0.064502
v 0.004825 0.762300 -0.077344
v 0.004825 0.762300 -0.062287
v 0.004825 0.762300 -0.079598
v 0.004631 0.762300 -0.079598
v -0.004542 0.762300 -0.062287
vn -0.0000 -1.0000 -0.0000
vn -0.0000 -0.0000 -1.0000
vn 1.0000 -0.0000 -0.0000
vn -0.0000 -0.0000 1.0000
vn -1.0000 -0.0000 -0.0000
vn -0.0000 -0.4928 -0.8701
vn -0.0000 -0.6426 -0.7662
vn 1.0000 0.0054 0.0046
vn 0.9997 0.0249 0.0058
vn 0.9997 0.0249 -0.0058
vn -0.9997 0.0249 0.0058
vn -0.9997 0.0249 -0.0058
vn -0.9997 -0.0185 -0.0146
vn -1.0000 0.0054 -0.0046
vn -0.0000 0.0126 0.9999
vn -0.0000 0.0031 1.0000
vn -0.0000 -0.0335 0.9994
vn 0.9997 -0.0185 0.0146
vn -0.0000 -0.4928 0.8701
vn -0.0000 -0.6426 0.7662
vn -0.9994 -0.0040 -0.0339
vn -0.9995 -0.0065 -0.0315
vn -0.9995 -0.0071 -0.0314
vn -0.9995 -0.0112 -0.0297
vn -0.9995 -0.0153 -0.0289
vn -0.9994 -0.0202 -0.0287
vn -0.9992 -0.0274 -0.0295
vn -0.9992 -0.0282 -0.0296
vn -1.0000 0.0054 0.0046
vn -0.9992 -0.0282 0.0296
vn -0.9992 -0.0274 0.0295
vn -0.9994 -0.0202 0.0287
vn -0.9995 -0.0153 0.0289
vn -0.9995 -0.0112 0.0297
vn -0.9995 -0.0071 0.0314
vn -0.9995 -0.0065 0.0315
vn -0.9994 -0.0040 0.0339
vn 1.0000 0.0054 -0.0046
vn 0.9992 -0.0282 -0.0296
vn 0.9992 -0.0274 -0.0295
vn 0.9994 -0.0202 -0.0287
vn 0.9995 -0.0153 -0.0289
vn 0.9995 -0.0112 -0.0297
vn 0.9995 -0.0071 -0.0314
vn 0.9995 -0.0065 -0.0315
vn 0.9994 -0.0040 -0.0339
vn 0.9994 -0.0040 0.0339
vn 0.9995 -0.0065 0.0315
vn 0.9995 -0.0071 0.0314
vn 0.9995 -0.0112 0.0297
vn 0.9995 -0.0153 0.0289
vn 0.9994 -0.0202 0.0287
vn 0.9992 -0.0274 0.0295
vn 0.9992 -0.0282 0.0296
vn -0.0000 -0.7246 0.6891
vn -0.0000 -0.6328 0.7743
vn -0.0000 -0.5455 0.8381
vn -0.0000 -0.4573 0.8893
vn -0.0000 -0.3643 0.9313
vn -0.0000 -0.2616 0.9652
vn -0.0000 -0.1388 0.9903
vn -0.0000 -0.2615 0.9652
vn -0.0000 -0.7246 -0.6891
vn -0.0000 -0.6328 -0.7743
vn -0.0000 -0.5455 -0.8381
vn -0.0000 -0.4573 -0.8893
vn -0.0000 -0.3643 -0.9313
vn -0.0000 -0.2616 -0.9652
vn -0.0000 -0.1388 -0.9903
vn -0.0000 -0.2615 -0.9652
vn -0.0000 -0.0335 -0.9994
vn -0.0000 0.0031 -1.0000
vn -0.0000 1.0000 -0.0000
vn -0.0000 0.9431 0.3325
vn -0.0000 0.5476 0.8367
vn -0.0000 0.9430 -0.3328
vn -0.0000 0.5534 -0.8329
vn 1.0000 0.0076 -0.0000
vn 1.0000 0.0056 -0.0000
vn -1.0000 0.0076 -0.0000
vn -1.0000 0.0056 -0.0000
vn -0.0000 0.0126 -0.9999
vn -0.9997 -0.0185 0.0146
vn 0.9997 -0.0185 -0.0146
vn -0.0000 0.5523 0.8337
vn -0.0000 0.9430 0.3327
vn -0.0000 0.9431 -0.3325
vn -0.0000 0.5492 -0.8357
vn -0.0000 0.8352 0.5499
vn -0.0000 -1.0000 -0.0013
vn -0.0000 0.8361 -0.5486
vn -0.0000 0.5477 0.8367
vn -0.0000 1.0000 0.0062
vn -0.0000 0.8326 0.5538
vn -0.0000 0.8326 -0.5538
vn -0.0000 1.0000 -0.0047
vn -0.0000 0.9431 0.3324
vt 0.353180 0.212535
vt 0.336115 0.263682
vt 0.353180 0.263682
vt 0.301985 0.004922
vt 0.319050 0.979285
vt 0.319050 0.004922
vt 0.000000 0.000000
vt 0.051147 1.000000
vt 0.051147 0.000000
vt 0.336115 0.979285
vt 0.336115 0.004922
vt 0.102294 1.000000
vt 0.102294 0.000000
vt 0.399051 0.004922
vt 0.379918 0.006990
vt 0.396983 0.006990
vt 0.377849 0.060206
vt 0.396983 0.058137
vt 0.379918 0.058137
vt 0.377849 0.004922
vt 0.399051 0.060206
vt 0.356865 0.164657
vt 0.377830 0.046339
vt 0.356577 0.046339
vt 0.179348 0.065733
vt 0.169269 0.103468
vt 0.169269 0.114374
vt 0.169269 0.322372
vt 0.169269 0.311467
vt 0.140436 0.289278
vt 0.179348 0.273731
vt 0.356982 0.354077
vt 0.377542 0.339235
vt 0.356865 0.339235
vt 0.356603 0.179499
vt 0.377830 0.187898
vt 0.377805 0.179499
vt 0.140436 0.081279
vt 0.377830 0.220917
vt 0.356577 0.220917
vt 0.149062 0.289305
vt 0.153004 0.289028
vt 0.157201 0.288141
vt 0.161550 0.286694
vt 0.165864 0.284744
vt 0.169959 0.282370
vt 0.173666 0.279674
vt 0.176830 0.276777
vt 0.179348 0.360108
vt 0.176830 0.357062
vt 0.173666 0.354165
vt 0.169959 0.351469
vt 0.165864 0.349095
vt 0.161550 0.347145
vt 0.157201 0.345699
vt 0.153004 0.344811
vt 0.149062 0.344535
vt 0.179348 0.152109
vt 0.176830 0.149063
vt 0.173666 0.146167
vt 0.169959 0.143471
vt 0.165864 0.141096
vt 0.161550 0.139146
vt 0.157201 0.137700
vt 0.153004 0.136812
vt 0.149062 0.136536
vt 0.149062 0.081306
vt 0.153004 0.081030
vt 0.157201 0.080142
vt 0.161550 0.078696
vt 0.165864 0.076745
vt 0.169959 0.074371
vt 0.173666 0.071675
vt 0.176830 0.068778
vt 0.377849 0.217777
vt 0.377843 0.214042
vt 0.356559 0.217777
vt 0.377840 0.209822
vt 0.356565 0.214042
vt 0.377839 0.205296
vt 0.356568 0.209822
vt 0.377840 0.200654
vt 0.356569 0.205296
vt 0.377843 0.196090
vt 0.356568 0.200654
vt 0.377849 0.191801
vt 0.356565 0.196090
vt 0.356559 0.191801
vt 0.377849 0.043199
vt 0.377843 0.039464
vt 0.356559 0.043199
vt 0.377840 0.035245
vt 0.356565 0.039464
vt 0.377839 0.030719
vt 0.356568 0.035245
vt 0.377840 0.026076
vt 0.356569 0.030719
vt 0.377843 0.021512
vt 0.356568 0.026076
vt 0.377849 0.017223
vt 0.356565 0.021512
vt 0.377830 0.013320
vt 0.356559 0.017223
vt 0.356603 0.004922
vt 0.356559 0.212535
vt 0.351297 0.190075
vt 0.341576 0.190075
vt 0.356559 0.004922
vt 0.341377 0.172275
vt 0.351006 0.172275
vt 0.301985 0.212728
vt 0.286709 0.004922
vt 0.286709 0.212920
vt 0.301985 0.420726
vt 0.286709 0.420919
vt 0.356982 0.179499
vt 0.377542 0.164657
vt 0.336115 0.212535
vt 0.301985 0.979285
vt 0.000000 1.000000
vt 0.140436 0.344562
vt 0.377425 0.354077
vt 0.356577 0.187898
vt 0.140436 0.136563
vt 0.356577 0.013320
vt 0.341668 0.044701
vt 0.341377 0.044701
vt 0.341377 0.026906
vt 0.351098 0.026906
vt 0.301985 0.005114
vt 0.301985 0.213113
vt 0.377425 0.179499
vt 0.939617 0.507102
vt 0.910636 0.378299
vt 0.910088 0.378299
vt 0.905751 0.429039
vt 0.909297 0.378299
vt 0.854092 0.507102
vt 0.873034 0.507102
vt 0.863563 0.465774
vt 0.821374 0.429039
vt 0.760531 0.507102
vt 0.787796 0.507102
vt 0.816214 0.378299
vt 0.900336 0.378299
vt 0.826511 0.378299
vt 0.825193 0.378299
vt 0.901660 0.378299
vt 0.817555 0.378299
vt 0.921488 0.578274
vt 0.950469 0.707077
vt 0.920940 0.578274
vt 0.916603 0.629014
vt 0.920149 0.578274
vt 0.883885 0.707077
vt 0.864943 0.707077
vt 0.874414 0.665750
vt 0.832226 0.629014
vt 0.798647 0.707077
vt 0.771382 0.707077
vt 0.827066 0.578274
vt 0.828407 0.578274
vt 0.911187 0.578274
vt 0.912511 0.578274
vt 0.837363 0.578274
vt 0.836045 0.578274
vt 0.743411 0.001230
vt 0.783430 0.191323
vt 0.743411 0.191323
vt 0.463274 0.688809
vt 0.464078 0.015049
vt 0.503294 0.688809
vt 0.543313 0.021232
vt 0.543313 0.683564
vt 0.504467 0.021232
vt 0.623352 0.475568
vt 0.624525 0.015135
vt 0.663372 0.475568
vt 0.423255 0.981132
vt 0.423255 0.001230
vt 0.462470 0.981132
vt 0.783430 0.381416
vt 0.743411 0.381416
vt 0.543313 0.001230
vt 0.583333 0.594494
vt 0.543313 0.594494
vt 0.663372 0.001230
vt 0.703391 0.411081
vt 0.663372 0.411081
vt 0.783430 0.001230
vt 0.823450 0.133295
vt 0.783430 0.133295
vt 0.583333 0.001230
vt 0.623352 0.591354
vt 0.583333 0.591354
vt 0.703391 0.001230
vt 0.743411 0.408709
vt 0.703391 0.408709
vt 0.464078 0.015049
vt 0.503294 0.015049
vt 0.503294 0.683564
vt 0.663372 0.015135
vt 0.463274 0.001230
vt 0.823450 0.001230
vt 0.623352 0.001230
vt 0.341377 0.190075
vt 0.351297 0.189128
vt 0.341377 0.189128
vt 0.341377 0.187762
vt 0.351297 0.187762
vt 0.351297 0.172275
vt 0.351297 0.174563
vt 0.341377 0.174563
vt 0.341377 0.029223
vt 0.341377 0.042423
vt 0.351297 0.026906
vt 0.351297 0.029223
vt 0.351297 0.042423
vt 0.351297 0.044701
vt 0.966882 0.507102
vt 0.977733 0.707077
vt 0.463274 0.015049
vt 0.623352 0.015135
vt 0.503294 0.021232
vt 0.463274 0.981132
s 1
usemtl one
f 1/1/1 6/2/1 3/3/1
f 1/4/2 11/5/2 5/6/2
f 5/7/3 10/8/3 6/9/3
f 6/6/4 9/10/4 3/11/4
f 3/9/5 7/12/5 1/13/5
f 23/14/1 11/15/1 7/16/1
f 25/17/1 9/18/1 10/19/1
f 21/20/1 10/19/1 11/15/1
f 27/21/1 7/16/1 9/18/1
f 14/22/6 56/23/7 44/24/7
f 74/25/8 65/26/9 55/27/10
f 45/28/11 28/29/12 23/30/13
f 44/31/14 28/29/12 45/28/11
f 77/32/15 15/33/15 18/34/15
f 25/35/16 54/36/17 27/37/16
f 55/27/10 65/26/9 25/38/18
f 18/34/19 46/39/20 74/40/20
f 30/41/21 28/29/12 31/42/22
f 31/42/22 28/29/12 32/43/23
f 32/43/23 28/29/12 33/44/24
f 33/44/24 28/29/12 35/45/25
f 35/45/25 28/29/12 38/46/26
f 38/46/26 28/29/12 40/47/27
f 40/47/27 28/29/12 42/48/28
f 42/48/28 28/29/12 44/31/14
f 46/49/29 45/28/11 47/50/30
f 47/50/30 45/28/11 48/51/31
f 48/51/31 45/28/11 49/52/32
f 49/52/32 45/28/11 50/53/33
f 50/53/33 45/28/11 51/54/34
f 51/54/34 45/28/11 52/55/35
f 52/55/35 45/28/11 53/56/36
f 53/56/36 45/28/11 54/57/37
f 56/58/38 55/27/10 57/59/39
f 57/59/39 55/27/10 58/60/40
f 58/60/40 55/27/10 59/61/41
f 59/61/41 55/27/10 60/62/42
f 60/62/42 55/27/10 61/63/43
f 61/63/43 55/27/10 62/64/44
f 62/64/44 55/27/10 63/65/45
f 63/65/45 55/27/10 64/66/46
f 66/67/47 65/26/9 67/68/48
f 67/68/48 65/26/9 68/69/49
f 68/69/49 65/26/9 69/70/50
f 69/70/50 65/26/9 70/71/51
f 70/71/51 65/26/9 71/72/52
f 71/72/52 65/26/9 72/73/53
f 72/73/53 65/26/9 73/74/54
f 73/74/54 65/26/9 74/25/8
f 47/75/55 74/40/20 46/39/20
f 48/76/56 73/77/55 47/75/55
f 49/78/57 72/79/56 48/76/56
f 50/80/58 71/81/57 49/78/57
f 51/82/59 70/83/58 50/80/58
f 52/84/60 69/85/59 51/82/59
f 53/86/61 68/87/62 52/84/60
f 54/36/17 67/88/61 53/86/61
f 57/89/63 44/24/7 56/23/7
f 58/90/64 42/91/63 57/89/63
f 59/92/65 40/93/64 58/90/64
f 60/94/66 38/95/65 59/92/65
f 61/96/67 35/97/66 60/94/66
f 62/98/68 33/99/67 61/96/67
f 63/100/69 32/101/70 62/98/68
f 64/102/71 31/103/69 63/100/69
f 23/104/72 64/102/71 21/20/72
f 77/105/73 88/106/74 81/107/75
f 78/108/73 79/109/76 85/110/77
f 78/111/78 18/112/79 19/113/79
f 76/114/80 14/113/81 15/115/81
f 75/116/82 19/117/82 14/22/82
f 1/1/1 5/118/1 6/2/1
f 1/4/2 7/119/2 11/5/2
f 5/7/3 11/120/3 10/8/3
f 6/6/4 10/5/4 9/10/4
f 3/9/5 9/8/5 7/12/5
f 23/14/1 21/20/1 11/15/1
f 25/17/1 27/21/1 9/18/1
f 21/20/1 25/17/1 10/19/1
f 27/21/1 23/14/1 7/16/1
f 14/22/6 19/117/6 56/23/7
f 55/27/10 56/58/38 74/25/8
f 56/58/38 19/113/79 74/25/8
f 19/113/79 18/112/79 74/25/8
f 30/41/21 23/30/13 28/29/12
f 23/30/13 27/121/83 45/28/11
f 27/121/83 54/57/37 45/28/11
f 45/28/11 46/49/29 44/31/14
f 46/49/29 15/115/81 44/31/14
f 15/115/81 14/113/81 44/31/14
f 76/122/15 15/33/15 77/32/15
f 25/35/16 66/123/17 54/36/17
f 66/67/47 25/38/18 65/26/9
f 25/38/18 21/124/84 55/27/10
f 21/124/84 64/66/46 55/27/10
f 18/34/19 15/33/19 46/39/20
f 47/75/55 73/77/55 74/40/20
f 48/76/56 72/79/56 73/77/55
f 49/78/57 71/81/57 72/79/56
f 50/80/58 70/83/58 71/81/57
f 51/82/59 69/85/59 70/83/58
f 52/84/60 68/87/62 69/85/59
f 53/86/61 67/88/61 68/87/62
f 54/36/17 66/123/17 67/88/61
f 57/89/63 42/91/63 44/24/7
f 58/90/64 40/93/64 42/91/63
f 59/92/65 38/95/65 40/93/64
f 60/94/66 35/97/66 38/95/65
f 61/96/67 33/99/67 35/97/66
f 62/98/68 32/101/70 33/99/67
f 63/100/69 31/103/69 32/101/70
f 64/102/71 30/125/71 31/103/69
f 23/104/72 30/125/71 64/102/71
f 76/118/73 100/126/85 94/127/86
f 75/11/73 91/128/87 99/129/88
f 78/111/78 77/130/78 18/112/79
f 76/114/80 75/131/80 14/113/81
f 78/132/82 19/117/82 75/116/82
s 0
f 13/133/3 88/134/3 89/135/3
f 16/136/3 89/135/3 90/137/3
f 16/136/3 20/138/3 17/139/3
f 16/136/3 8/140/3 20/138/3
f 8/140/3 22/141/3 20/138/3
f 22/141/3 4/142/3 2/143/3
f 22/141/3 98/144/3 4/142/3
f 16/136/3 86/145/3 8/140/3
f 22/141/3 97/146/3 95/147/3
f 90/137/3 87/148/3 16/136/3
f 95/147/3 96/149/3 22/141/3
f 82/150/5 36/151/5 83/152/5
f 83/152/5 37/153/5 84/154/5
f 37/153/5 39/155/5 41/156/5
f 37/153/5 41/156/5 29/157/5
f 29/157/5 41/156/5 43/158/5
f 43/158/5 24/159/5 26/160/5
f 43/158/5 91/161/5 92/162/5
f 37/153/5 79/163/5 80/164/5
f 94/165/5 43/158/5 93/166/5
f 84/154/5 37/153/5 80/164/5
f 93/166/5 43/158/5 92/162/5
s 1
f 4/167/88 24/168/89 2/169/89
f 4/170/88 99/171/88 26/172/88
f 97/173/86 8/174/90 100/175/85
f 8/176/90 85/177/77 29/178/90
f 88/179/74 12/180/75 81/181/75
f 13/169/91 34/182/92 12/183/75
f 16/184/93 36/185/91 13/186/91
f 17/187/94 37/188/93 16/189/93
f 20/190/95 39/191/94 17/192/94
f 22/193/96 41/194/95 20/195/95
f 2/196/89 43/197/96 22/198/96
f 4/167/88 26/190/88 24/168/89
f 99/199/88 91/200/87 26/172/88
f 29/201/90 100/175/85 8/174/90
f 85/177/77 79/202/76 29/178/90
f 34/203/92 81/181/75 12/180/75
f 13/169/91 36/168/91 34/182/92
f 16/184/93 37/193/93 36/185/91
f 17/187/94 39/196/94 37/188/93
f 20/190/95 41/204/95 39/191/94
f 22/193/96 43/205/96 41/194/95
f 2/196/89 24/167/89 43/197/96
f 81/107/75 82/206/97 76/118/73
f 76/118/73 77/105/73 81/107/75
f 89/207/73 88/106/74 77/105/73
f 76/118/73 82/206/97 83/208/73
f 76/118/73 83/208/73 84/209/73
f 89/207/73 77/105/73 90/210/73
f 77/105/73 78/108/73 86/211/76
f 90/210/73 77/105/73 87/212/73
f 87/212/73 77/105/73 86/211/76
f 76/118/73 84/209/73 80/213/73
f 76/118/73 80/213/73 79/109/76
f 78/108/73 76/118/73 79/109/76
f 85/110/77 86/211/76 78/108/73
f 91/128/87 75/11/73 92/214/73
f 75/11/73 76/118/73 94/127/86
f 92/214/73 75/11/73 93/215/73
f 78/108/73 98/216/87 96/217/73
f 78/108/73 96/217/73 95/218/73
f 93/215/73 75/11/73 94/127/86
f 78/108/73 95/218/73 97/219/86
f 76/118/73 78/108/73 97/219/86
f 76/118/73 97/219/86 100/126/85
f 99/129/88 98/216/87 78/108/73
f 78/108/73 75/11/73 99/129/88
s 0
f 13/133/3 12/220/3 88/134/3
f 16/136/3 13/133/3 89/135/3
f 22/141/3 96/149/3 98/144/3
f 16/136/3 87/148/3 86/145/3
f 22/141/3 8/140/3 97/146/3
f 82/150/5 34/221/5 36/151/5
f 83/152/5 36/151/5 37/153/5
f 43/158/5 26/160/5 91/161/5
f 37/153/5 29/157/5 79/163/5
f 94/165/5 29/157/5 43/158/5
s 1
f 4/170/88 98/222/87 99/171/88
f 8/176/90 86/223/76 85/177/77
f 29/201/90 94/224/86 100/175/85
f 34/203/92 82/225/97 81/181/75
